PathFileType	4	(X/Y/Z)	./resultDataOpenSim/trcMotMarkerGrf/sub06/qtm-15-06.trc
DataRate	CameraRate	NumFrames	NumMarkers	Units	OrigDataRate	OrigDataStartFrame	OrigNumFrames
250.000000	250.000000	8	24	m	250.000000	336	536
Frame#	Time	L.Toe.Tip			R.Toe.Tip			L.Ankle.Lat			R.Ankle.Lat			L.Ankle.Med			R.Ankle.Med			L.Heel			R.Heel			L.Knee.Lat			R.Knee.Lat			L.Knee.Med			R.Knee.Med			L.Thigh.Upper			R.Thigh.Upper			L.ASIS			R.ASIS			V.Sacral			L.Acromium			R.Acromium			C7			L.Elbow			R.Elbow			L.Wrist.Lat			R.Wrist.Lat
		X1	Y1	Z1	X2	Y2	Z2	X3	Y3	Z3	X4	Y4	Z4	X5	Y5	Z5	X6	Y6	Z6	X7	Y7	Z7	X8	Y8	Z8	X9	Y9	Z9	X10	Y10	Z10	X11	Y11	Z11	X12	Y12	Z12	X13	Y13	Z13	X14	Y14	Z14	X15	Y15	Z15	X16	Y16	Z16	X17	Y17	Z17	X18	Y18	Z18	X19	Y19	Z19	X20	Y20	Z20	X21	Y21	Z21	X22	Y22	Z22	X23	Y23	Z23	X24	Y24	Z24

336	1.34	0.62441867	0.15291612	-0.062163911	0.94608835	0.035323176	0.091820833	0.62638507	0.28401801	-0.093989464	0.80975913	0.062543031	0.11567831	0.64939107	0.29020017	-0.012482959	0.83067113	0.083508756	0.028921982	0.57932055	0.34152089	-0.043374136	0.75412095	0.042896799	0.057136264	0.96610409	0.42935482	-0.14146988	0.91582116	0.43761635	0.14842803	0.96800447	0.42152416	-0.013400465	0.87848136	0.43104127	0.026554148	0.79799281	0.78773729	-0.13806152	0.82641074	0.80628127	0.20616754	0.87224904	0.83660708	-0.097466101	0.90430391	0.85698052	0.1405179	0.707379	0.93013349	0.041901052	0.89903874	1.3335797	-0.1349612	0.88676886	1.2928721	0.2226402	0.81484382	1.3580459	0.044966003	0.87662361	1.0129125	-0.22198054	0.81247806	0.98023434	0.29443758	1.0748416	0.86976356	-0.17422349	1.0294688	0.85408485	0.32858439
337	1.344	0.63940974	0.15253807	-0.063178833	0.94604997	0.035318322	0.091843931	0.63846221	0.28347401	-0.094896211	0.80970728	0.062861661	0.11563386	0.66086014	0.29014249	-0.013201172	0.83068921	0.083858713	0.028934163	0.59011273	0.3401642	-0.044499478	0.75419605	0.043356233	0.056991378	0.97616156	0.43398335	-0.14137765	0.91572675	0.43814582	0.14805888	0.97803821	0.42630716	-0.013215447	0.87846279	0.4315464	0.025949548	0.80472011	0.79103252	-0.13867829	0.83088972	0.80780076	0.20572333	0.87848537	0.83960319	-0.097663163	0.90952781	0.85896435	0.1407304	0.71275196	0.93235541	0.041050332	0.90401051	1.3359934	-0.13539404	0.89141324	1.2960325	0.22221096	0.81955178	1.3605487	0.04443138	0.87841465	1.0158687	-0.22197804	0.82112253	0.98215765	0.29429013	1.0743741	0.86883005	-0.17776185	1.0422673	0.86218871	0.32510104
338	1.348	0.65448783	0.15196602	-0.064182484	0.94600753	0.035307647	0.091881069	0.65065471	0.28258737	-0.095835153	0.80971843	0.063209739	0.11556197	0.67240493	0.28979198	-0.013976119	0.83073391	0.084246095	0.028928963	0.60096426	0.33848797	-0.045697662	0.75430779	0.043816154	0.056806871	0.98604697	0.43854864	-0.14127045	0.91565539	0.43868349	0.14770465	0.98829506	0.43097279	-0.0129265	0.87864901	0.43204362	0.025236935	0.81140898	0.79427583	-0.13930001	0.83526357	0.8092118	0.205257	0.88470618	0.84261036	-0.097745205	0.91460986	0.86081892	0.14096703	0.71813025	0.93447621	0.040311637	0.90894516	1.3383434	-0.13582042	0.89607747	1.2991343	0.2217666	0.82424525	1.3629698	0.043902446	0.88021515	1.0187992	-0.22193799	0.82979964	0.98408629	0.29414858	1.0738407	0.86797759	-0.18127657	1.0547456	0.87031245	0.32156032
339	1.352	0.66966253	0.15121011	-0.065184929	0.94597386	0.035295931	0.091924677	0.66291989	0.28138365	-0.096780377	0.80982145	0.063575377	0.11544885	0.68415111	0.28919397	-0.014845771	0.83081224	0.084670697	0.028903478	0.61186944	0.33649814	-0.046959281	0.7544497	0.044260573	0.056578636	0.99581724	0.44304833	-0.1411418	0.91562434	0.43923193	0.14735874	0.99868627	0.43552967	-0.012550882	0.87907534	0.43259953	0.024420767	0.81806646	0.7974507	-0.13992271	0.83957243	0.8105233	0.20480054	0.89092551	0.84566083	-0.09765572	0.91954518	0.86253491	0.14123724	0.72350148	0.93649551	0.03963691	0.9138343	1.3406255	-0.13624758	0.90076837	1.3021823	0.22131004	0.82892721	1.3653161	0.043380775	0.88199262	1.0216885	-0.22192662	0.83846012	0.98602604	0.29400986	1.0732546	0.86720586	-0.18476057	1.0669338	0.87845936	0.31798737
340	1.356	0.68498184	0.15026825	-0.066212749	0.94596066	0.035287526	0.09196837	0.6752221	0.27992713	-0.097727889	0.80993729	0.063975418	0.1153257	0.69606012	0.28836003	-0.01578479	0.83093827	0.085125429	0.028854402	0.62281798	0.3341995	-0.04824445	0.75462483	0.044693865	0.056261269	1.0055691	0.44746264	-0.14096081	0.91565181	0.43979528	0.14701097	1.0086332	0.43999424	-0.012236807	0.87955646	0.43325191	0.023550968	0.82470156	0.80054644	-0.14054839	0.84384204	0.81175096	0.20441288	0.89695179	0.8487393	-0.097471598	0.92439981	0.86412132	0.14153686	0.72884436	0.93842207	0.038964979	0.91868191	1.3428409	-0.13667914	0.90549183	1.3051811	0.22084255	0.83360033	1.3675877	0.042868055	0.88373435	1.024535	-0.22201404	0.84707281	0.98799549	0.29387768	1.0726332	0.86651863	-0.18820556	1.078881	0.88665717	0.31439473
341	1.36	0.70042842	0.14913505	-0.067260991	0.94596858	0.035282788	0.09201136	0.68756374	0.27828121	-0.098689508	0.80998383	0.064435158	0.1152251	0.70801439	0.28728705	-0.016742609	0.83112908	0.08560411	0.028773636	0.63381408	0.33160196	-0.049511585	0.75482071	0.045150928	0.05580193	1.0153429	0.45176867	-0.14071646	0.91575113	0.44037767	0.14666074	1.0174399	0.44436643	-0.012158208	0.87987081	0.43399622	0.022687357	0.83132788	0.80356333	-0.1411743	0.84808641	0.81290696	0.2041561	0.9026289	0.8517868	-0.097330425	0.92921437	0.86558995	0.1418637	0.73418037	0.94026598	0.038325665	0.92349703	1.3449911	-0.1371134	0.91024896	1.3081275	0.22036347	0.83826262	1.3697752	0.04236237	0.88547005	1.0273419	-0.22221109	0.85564814	0.99000435	0.29376414	1.0719942	0.86591634	-0.19160715	1.0906228	0.89492539	0.31078816
342	1.364	0.71591185	0.14781658	-0.068293999	0.94599377	0.035281117	0.092053052	0.69997653	0.27646549	-0.099674375	0.80998442	0.06495757	0.11513358	0.71998099	0.28597572	-0.017699744	0.83139714	0.086109447	0.028654708	0.64487343	0.32871865	-0.050754645	0.75501596	0.045691434	0.055213357	1.0250601	0.45595278	-0.14044011	0.91590975	0.44097809	0.14631821	1.02507	0.44865511	-0.012326705	0.8799864	0.43478307	0.021885962	0.83796048	0.80650693	-0.14177772	0.85234372	0.81401146	0.20395566	0.90813973	0.8547407	-0.097298461	0.93404112	0.86698545	0.14220017	0.73956072	0.9420353	0.037792179	0.92828698	1.3470759	-0.13754689	0.91503549	1.3110066	0.21986965	0.84291255	1.3718691	0.041865402	0.88725601	1.0301101	-0.22244956	0.86422042	0.99203702	0.29367496	1.071345	0.86539183	-0.19496552	1.1021933	0.90328035	0.30717041
343	1.368	0.73138002	0.14633573	-0.069303195	0.94603726	0.035284387	0.092085743	0.71249221	0.27447049	-0.10068644	0.81002141	0.065526635	0.11500584	0.73206856	0.28442396	-0.018680489	0.83174302	0.08664959	0.02850145	0.65600173	0.32556408	-0.051992707	0.7552193	0.046357011	0.054591588	1.034607	0.46001112	-0.1401647	0.91606029	0.44158614	0.14599765	1.0325168	0.45292786	-0.012510951	0.88007115	0.43552488	0.021199336	0.84461162	0.80937924	-0.14231236	0.85663487	0.8151032	0.20354219	0.91389379	0.8575838	-0.097322036	0.93898416	0.86838287	0.14250109	0.74501554	0.94373113	0.037368205	0.93305393	1.349094	-0.13797793	0.91984779	1.3138034	0.21935699	0.84755163	1.3738682	0.041390316	0.88913472	1.0328384	-0.22264279	0.87281558	0.99406834	0.29360548	1.0706768	0.86492749	-0.1982862	1.1136044	0.91172584	0.30354122
